<?xml version="1.0" standalone="no"?>
<!DOCTYPE svg PUBLIC "-//W3C//DTD SVG 20010904//EN"
 "http://www.w3.org/TR/2001/REC-SVG-20010904/DTD/svg10.dtd">
<svg version="1.0" xmlns="http://www.w3.org/2000/svg"
 width="500.000000pt" height="500.000000pt" viewBox="0 0 500.000000 500.000000"
 preserveAspectRatio="xMidYMid meet">

<g transform="translate(0.000000,500.000000) scale(0.100000,-0.100000)"
fill="#000000" stroke="none">
<path d="M2295 4420 c-149 -13 -308 -53 -475 -117 -154 -60 -193 -81 -345
-182 -201 -133 -432 -373 -535 -556 -155 -274 -226 -504 -252 -813 -18 -214
13 -477 84 -697 33 -104 149 -345 208 -430 261 -379 662 -654 1100 -754 204
-47 493 -53 700 -16 308 55 635 221 876 445 122 113 158 154 247 279 157 219
261 471 313 761 22 117 25 417 5 535 -67 418 -234 750 -515 1030 -384 382
-879 563 -1411 515z m540 -63 c276 -66 525 -188 725 -356 298 -249 494 -561
589 -940 42 -167 54 -264 54 -436 -1 -465 -178 -902 -501 -1237 -216 -224
-523 -401 -827 -476 -151 -38 -228 -46 -410 -46 -365 1 -624 78 -954 284 -187
118 -398 330 -526 529 -101 158 -196 394 -235 586 -44 213 -44 526 -1 722 42
191 143 444 234 588 213 336 557 606 927 729 119 39 225 65 325 80 17 2 134 3
260 2 209 -2 240 -5 340 -29z"/>
<path d="M2247 4250 c-258 -41 -529 -154 -724 -301 -51 -39 -96 -76 -100 -83
-5 -8 -3 -8 8 0 220 171 445 281 696 340 133 31 396 43 538 25 273 -36 578
-164 787 -332 l63 -51 -53 51 c-100 96 -328 226 -492 281 -164 55 -265 71
-470 75 -107 2 -221 0 -253 -5z"/>
<path d="M2320 4220 c-168 -17 -353 -68 -525 -145 -165 -74 -375 -228 -512
-376 -159 -172 -294 -416 -347 -627 -52 -207 -60 -268 -60 -462 0 -170 3 -198
33 -340 18 -85 39 -180 47 -210 8 -30 14 -61 14 -70 -1 -25 -28 30 -41 84 -11
45 -13 47 -23 27 -12 -21 -13 -21 -28 -4 -21 24 -53 129 -79 266 -28 143 -31
375 -5 517 34 193 103 412 172 545 l26 50 -24 -25 c-13 -14 -23 -26 -22 -28 1
-2 -15 -40 -36 -85 -210 -449 -211 -984 -3 -1432 100 -214 262 -428 433 -570
184 -153 412 -281 620 -349 393 -127 863 -92 1230 94 178 89 222 118 376 243
157 126 358 393 455 602 40 87 97 281 126 430 23 120 23 391 -1 525 -34 196
-143 527 -176 538 -6 2 -8 8 -4 13 3 5 -2 12 -10 15 -9 3 -13 10 -10 15 3 5
-2 19 -12 31 -14 20 -16 20 -9 3 4 -11 8 -24 9 -30 5 -20 71 -150 79 -153 4
-2 5 -7 2 -12 -2 -4 6 -34 19 -66 29 -71 81 -295 97 -419 23 -179 2 -405 -61
-650 -23 -89 -30 -106 -40 -100 -5 3 -11 1 -15 -4 -3 -6 -13 -7 -22 -4 -13 5
-15 2 -10 -11 4 -10 7 -22 7 -27 0 -5 4 -9 10 -9 5 0 7 6 4 13 -3 8 2 20 11
27 11 9 15 9 15 1 0 -20 -42 -111 -51 -111 -5 0 -5 -7 -2 -17 5 -12 3 -14 -7
-8 -9 5 -11 4 -6 -3 9 -15 -25 -74 -39 -69 -5 3 -9 11 -9 20 1 9 -2 15 -6 12
-5 -3 -1 13 7 35 9 22 19 37 23 35 4 -2 5 6 3 18 -3 13 11 84 31 158 89 340
98 551 34 848 -76 357 -269 675 -545 895 -229 184 -467 293 -741 341 -112 19
-293 26 -402 15z m80 -93 l0 -32 65 0 65 0 0 33 c0 22 5 32 15 32 11 0 15 -12
15 -47 l0 -48 -93 2 c-85 2 -100 -1 -154 -26 -33 -16 -64 -35 -69 -42 -13 -21
-19 13 -16 85 3 49 7 66 18 66 10 0 14 -14 14 -56 0 -47 2 -55 14 -45 8 6 33
17 57 24 41 12 44 15 47 50 4 46 22 49 22 4z m310 -57 c0 -44 -2 -80 -4 -80
-2 0 -30 16 -62 35 -32 19 -62 35 -68 35 -6 0 -6 4 1 11 13 13 44 -1 81 -34
l22 -20 0 66 c0 53 3 67 15 67 12 0 15 -16 15 -80z m-600 16 c0 -21 6 -36 15
-40 22 -8 19 -54 -5 -68 -19 -12 -20 -24 -20 -215 l0 -203 75 0 c43 0 75 -4
75 -10 0 -6 -47 -10 -121 -10 l-121 0 -82 -82 c-44 -45 -163 -167 -263 -272
l-183 -191 -1 -155 c0 -85 -3 -173 -8 -195 -7 -40 -7 -40 -14 24 -4 35 -7 123
-7 195 l0 131 265 277 265 278 1 182 c1 315 3 351 17 355 9 4 12 -53 12 -261
l0 -266 35 0 35 0 0 195 c0 186 -1 197 -22 225 l-22 30 22 30 c12 16 22 41 22
55 0 16 6 25 15 25 10 0 15 -10 15 -34z m760 2 c0 -12 10 -32 22 -45 20 -21
30 -23 129 -23 108 0 139 -5 139 -21 0 -5 -56 -9 -125 -9 -101 0 -127 -3 -131
-15 -3 -8 -14 -17 -24 -20 -18 -6 -19 -23 -19 -293 l-1 -287 92 -95 c50 -52
133 -138 184 -191 l94 -96 0 -129 c0 -87 -3 -124 -10 -114 -5 8 -10 64 -10
123 l0 108 -92 94 -93 94 -38 -37 c-21 -20 -35 -30 -32 -21 3 9 19 26 36 38
l30 22 -98 104 -98 105 -80 0 c-55 0 -75 3 -65 10 8 5 48 10 88 10 l72 0 0
274 c0 231 -2 275 -15 286 -8 7 -15 27 -15 45 0 18 7 38 15 45 8 7 15 23 15
36 0 15 6 24 15 24 9 0 15 -9 15 -22z m-275 -93 c22 -10 65 -44 97 -75 43 -43
60 -69 72 -110 21 -72 20 -136 -5 -190 -28 -63 -62 -95 -128 -121 -88 -34
-101 -54 -101 -152 0 -45 -3 -99 -6 -119 -12 -74 -24 -36 -24 76 0 101 2 117
23 147 12 19 41 42 62 52 80 35 108 53 124 77 14 22 12 22 -21 -6 -20 -18 -58
-39 -86 -48 -89 -30 -112 -71 -112 -201 0 -98 -10 -135 -34 -135 -10 0 -16 21
-21 78 -10 127 -12 131 -14 30 0 -58 -5 -98 -11 -98 -6 0 -10 49 -10 127 0
108 3 133 21 170 26 54 66 88 131 110 75 27 98 52 98 109 0 139 -146 217 -280
149 -39 -20 -57 -37 -81 -80 -31 -54 -56 -71 -95 -63 -34 6 -39 33 -20 95 14
46 30 70 75 114 34 33 75 63 102 72 61 22 190 18 244 -8z m-644 -35 c25 -14
25 -64 1 -82 -14 -10 -19 -28 -21 -73 -2 -57 -4 -62 -51 -110 -41 -43 -47 -54
-43 -81 7 -42 -11 -52 -78 -47 l-56 5 1 36 c1 34 -1 36 -34 39 -27 2 -44 13
-73 44 -49 55 -38 64 16 12 40 -39 45 -41 119 -45 l77 -5 50 51 c49 49 51 54
51 106 0 44 -4 58 -20 68 -25 16 -27 67 -2 81 22 13 39 13 63 1z m-256 -48
c44 -24 85 -63 85 -82 0 -8 14 -29 32 -47 17 -18 29 -36 25 -39 -7 -7 -138
111 -146 131 -2 6 -12 16 -23 23 -17 12 -25 32 -13 32 3 0 21 -8 40 -18z
m1315 -37 c10 -12 45 -15 194 -15 99 0 188 -5 196 -10 10 -6 -51 -10 -181 -10
-162 0 -199 -3 -209 -15 -18 -21 -57 -19 -70 4 -13 25 -13 27 6 45 20 20 48
20 64 1z m-1390 -62 c0 -43 -23 -40 -28 3 -2 16 -8 33 -13 39 -18 19 -8 25 16
9 19 -12 25 -25 25 -51z m1680 -53 c0 -6 -78 -10 -215 -10 -137 0 -215 4 -215
10 0 6 78 10 215 10 137 0 215 -4 215 -10z m-80 -55 c10 -12 44 -15 185 -15
141 0 175 -3 185 -15 11 -13 -9 -15 -173 -15 -152 0 -187 -3 -197 -15 -17 -21
-43 -19 -70 5 -13 11 -27 20 -32 20 -4 0 -8 5 -8 10 0 6 7 10 16 10 8 0 22 7
30 15 9 8 24 15 33 15 10 0 24 -7 31 -15z m-157 -45 c4 0 7 7 7 15 0 8 5 15
10 15 6 0 10 -7 10 -15 0 -8 -4 -15 -10 -15 -6 0 -10 -36 -10 -87 1 -84 2 -87
16 -61 37 69 136 27 119 -51 -5 -25 8 -42 143 -182 81 -85 186 -194 233 -244
46 -49 86 -91 89 -92 3 -1 17 -4 33 -7 20 -5 27 -12 27 -31 0 -13 -4 -27 -10
-30 -16 -10 -12 -101 5 -115 19 -16 19 -54 0 -70 -23 -19 -64 -4 -71 27 -5 20
-2 31 14 44 29 23 30 91 2 119 -11 11 -20 27 -20 36 0 9 -103 124 -230 256
-126 131 -230 243 -230 248 0 4 -17 6 -37 3 -32 -4 -43 0 -70 25 -32 28 -33
31 -33 112 0 66 -4 90 -21 119 l-21 36 24 -27 c13 -16 27 -28 31 -28z m-1562
-91 c72 -71 145 -138 162 -148 25 -14 32 -24 32 -47 0 -23 -5 -30 -23 -32 -31
-5 -55 17 -49 45 3 14 -4 30 -19 44 l-24 22 0 -112 c0 -72 -4 -110 -10 -106
-6 4 -10 56 -10 123 l0 117 -100 100 -100 100 0 -73 c0 -57 3 -72 15 -72 8 0
15 -7 15 -15 0 -8 -7 -15 -15 -15 -12 0 -15 -15 -15 -71 0 -38 4 -68 9 -65 4
3 23 -14 41 -37 19 -23 25 -34 14 -24 -12 9 -28 17 -37 17 -8 0 -18 8 -20 18
-3 9 -5 -18 -6 -60 -1 -65 1 -76 14 -72 10 4 15 0 15 -15 0 -23 -15 -29 -23
-8 -3 6 -6 -122 -6 -285 -1 -192 -5 -298 -11 -298 -6 0 -10 137 -10 392 l0
392 -32 33 c-33 34 -50 42 -47 21 1 -7 1 -39 0 -70 -2 -91 -21 -69 -21 25 -1
56 -5 88 -15 101 -21 28 -19 34 10 32 15 0 25 -7 25 -16 0 -9 18 -34 40 -55
l40 -39 0 135 c0 131 3 149 22 149 5 0 68 -59 139 -131z m1409 106 c0 -8 -7
-15 -15 -15 -8 0 -15 7 -15 15 0 8 7 15 15 15 8 0 15 -7 15 -15z m70 6 c0 -6
-4 -13 -10 -16 -5 -3 -10 1 -10 9 0 9 5 16 10 16 6 0 10 -4 10 -9z m-1450 -11
c0 -5 -4 -10 -10 -10 -5 0 -10 5 -10 10 0 6 5 10 10 10 6 0 10 -4 10 -10z
m1450 -60 c0 -11 -7 -20 -15 -20 -8 0 -15 9 -15 20 0 11 7 20 15 20 8 0 15 -9
15 -20z m-1450 -10 c0 -5 -7 -10 -15 -10 -8 0 -15 5 -15 10 0 6 7 10 15 10 8
0 15 -4 15 -10z m1949 -45 c-1 -5 -5 -9 -10 -7 -5 1 -9 -18 -9 -43 l0 -45 144
0 c86 0 147 -4 151 -10 3 -5 0 -10 -7 -10 -170 -1 -377 -15 -394 -27 -39 -25
-86 16 -64 57 13 24 68 28 76 5 4 -9 19 -15 39 -15 36 0 45 18 37 68 -4 20
-10 22 -68 22 -39 0 -64 4 -64 11 0 7 30 9 85 7 49 -2 85 -7 84 -13z m48 -11
c-9 -9 -28 6 -21 18 4 6 10 6 17 -1 6 -6 8 -13 4 -17z m53 16 c0 -5 -4 -10
-10 -10 -5 0 -10 5 -10 10 0 6 5 10 10 10 6 0 10 -4 10 -10z m-600 -30 c0 -11
-7 -20 -15 -20 -8 0 -15 9 -15 20 0 11 7 20 15 20 8 0 15 -9 15 -20z m-1490
-15 c0 -8 -7 -15 -15 -15 -16 0 -20 12 -8 23 11 12 23 8 23 -8z m1490 -60 c0
-8 -7 -15 -15 -15 -8 0 -15 7 -15 15 0 8 7 15 15 15 8 0 15 -7 15 -15z m-1590
-31 c0 -8 -4 -14 -10 -14 -5 0 -10 9 -10 21 0 11 5 17 10 14 6 -3 10 -13 10
-21z m98 4 c-6 -18 -28 -21 -28 -4 0 9 7 16 16 16 9 0 14 -5 12 -12z m832 -38
c0 -6 -47 -10 -121 -10 -77 0 -118 4 -114 10 4 6 55 10 121 10 69 0 114 -4
114 -10z m780 -135 c177 -183 223 -235 214 -235 -5 0 -68 59 -139 130 -71 72
-135 130 -142 130 -7 0 -13 8 -13 18 0 9 -15 35 -32 57 -51 62 -4 20 112 -100z
m-1018 98 c43 -39 7 -109 -52 -101 -29 4 -42 -6 -173 -139 -123 -125 -141
-148 -139 -172 2 -21 -4 -34 -22 -49 -23 -17 -26 -28 -27 -83 -1 -35 -4 -75
-8 -89 -6 -20 -9 -15 -14 30 -4 30 -7 71 -7 91 0 20 -7 42 -15 49 -21 17 -19
66 3 82 10 7 22 26 26 43 11 42 307 347 323 332 3 -3 -65 -74 -151 -158 -129
-126 -156 -157 -156 -180 0 -16 5 -29 12 -29 22 0 306 301 301 319 -6 23 34
71 59 71 12 0 30 -7 40 -17z m-592 -8 c0 -8 -7 -15 -15 -15 -8 0 -15 7 -15 15
0 8 7 15 15 15 8 0 15 -7 15 -15z m-340 -4 c0 -6 -4 -13 -10 -16 -5 -3 -10 1
-10 9 0 9 5 16 10 16 6 0 10 -4 10 -9z m2387 -16 c15 -11 57 -15 163 -17 104
-2 145 -6 148 -15 3 -10 -30 -13 -144 -13 -137 0 -149 -2 -170 -21 -22 -21
-25 -21 -49 -5 -29 19 -34 60 -7 75 23 14 34 13 59 -4z m-2147 -71 c0 -8 -4
-14 -10 -14 -5 0 -10 9 -10 21 0 11 5 17 10 14 6 -3 10 -13 10 -21z m100 11
c0 -8 -8 -15 -18 -15 -10 0 -19 7 -19 15 0 8 9 15 19 15 10 0 18 -7 18 -15z
m-230 -11 c0 -11 -5 -14 -16 -10 -9 3 -41 7 -72 8 l-57 1 65 7 c36 4 68 7 73
8 4 1 7 -5 7 -14z m-150 -59 c0 -44 5 -74 16 -90 15 -23 15 -27 0 -50 -13 -20
-16 -54 -16 -182 l0 -159 -70 -69 -70 -69 1 -91 c0 -85 1 -89 16 -67 8 12 23
22 32 22 11 -1 5 -10 -19 -30 -19 -17 -38 -30 -43 -30 -6 0 -8 44 -4 106 l5
106 61 62 61 62 0 157 c0 128 -3 161 -15 173 -21 22 -19 61 5 74 17 9 20 21
20 75 0 37 4 65 10 65 6 0 10 -28 10 -65z m1264 10 c6 -37 13 -48 38 -61 24
-12 36 -13 54 -5 33 15 30 5 -8 -30 -35 -31 -25 -38 22 -14 39 20 68 64 76
114 8 48 18 51 96 21 65 -25 119 -76 170 -165 78 -133 136 -210 214 -286 77
-73 88 -80 395 -232 173 -86 320 -157 326 -157 6 0 30 -18 55 -40 92 -80 120
-221 66 -326 -48 -92 84 -85 -1430 -82 l-1333 3 -34 24 c-101 72 -93 271 15
371 24 22 64 49 87 59 134 58 590 290 632 322 85 63 149 138 248 289 53 80
109 158 125 173 32 31 113 66 153 67 24 0 27 -5 33 -45z m-1114 -20 c0 -8 -4
-15 -9 -15 -13 0 -22 16 -14 24 11 11 23 6 23 -9z m230 0 c0 -8 -7 -15 -15
-15 -8 0 -15 7 -15 15 0 8 7 15 15 15 8 0 15 -7 15 -15z m90 0 c0 -8 -4 -15
-10 -15 -5 0 -10 7 -10 15 0 8 5 15 10 15 6 0 10 -7 10 -15z m-400 -5 c0 -5
-4 -10 -10 -10 -5 0 -10 5 -10 10 0 6 5 10 10 10 6 0 10 -4 10 -10z m2238 -72
c16 -16 15 -43 -3 -58 -12 -10 -15 -47 -16 -209 0 -119 -4 -188 -9 -176 -5 11
-9 97 -9 191 -1 158 -3 172 -21 189 -34 31 -20 75 25 75 12 0 26 -5 33 -12z
m444 -13 c9 -19 8 -29 -6 -49 -14 -22 -16 -58 -16 -243 l0 -219 -67 -64 c-69
-67 -68 -61 4 26 l43 51 0 204 c0 161 -3 210 -15 233 -18 34 -19 58 -3 74 20
20 48 14 60 -13z m-2372 5 c0 -5 -7 -10 -15 -10 -8 0 -15 5 -15 10 0 6 7 10
15 10 8 0 15 -4 15 -10z m-232 -32 c19 -19 14 -56 -8 -70 -19 -12 -20 -24 -20
-167 0 -151 0 -154 25 -177 30 -28 31 -43 4 -78 -25 -31 -61 -34 -89 -6 -30
30 -25 65 11 92 l31 23 -4 147 c-3 120 -7 150 -21 166 -33 37 -15 82 33 82 14
0 31 -5 38 -12z m1824 -126 c14 -10 18 -25 17 -70 l-2 -57 -11 58 c-7 35 -18
64 -30 72 -11 8 -15 19 -10 26 6 10 9 10 12 -1 3 -8 13 -21 24 -28z m-1232
-17 c-23 -23 -36 -49 -41 -77 l-6 -43 -2 45 c-1 38 4 49 36 82 20 21 39 35 42
33 2 -3 -10 -21 -29 -40z m1689 -127 c0 -106 -4 -165 -9 -153 -5 11 -9 86 -9
166 -1 128 2 159 16 159 2 0 3 -78 2 -172z m402 142 c23 -13 25 -43 4 -64 -9
-9 -15 -33 -15 -64 0 -35 4 -52 15 -56 21 -8 19 -43 -5 -63 -17 -15 -20 -30
-20 -110 0 -80 3 -96 20 -113 38 -38 20 -90 -31 -90 -64 0 -81 78 -23 101 23
8 24 13 24 101 -1 66 -5 99 -15 112 -19 25 -19 50 0 66 9 8 15 30 15 60 0 33
-5 50 -15 54 -21 8 -19 53 3 65 21 13 20 13 43 1z m-2991 -1011 c15 -28 5 -23
-15 7 -9 15 -12 23 -6 20 6 -4 16 -16 21 -27z m18 -54 c-3 -3 -9 2 -12 12 -6
14 -5 15 5 6 7 -7 10 -15 7 -18z m852 -35 c0 -22 -4 -40 -10 -40 -5 0 -10 18
-10 40 0 22 5 40 10 40 6 0 10 -18 10 -40z m1390 10 l0 -30 64 0 c44 0 67 5
76 15 28 34 88 7 75 -35 -8 -24 -62 -29 -71 -5 -9 22 -250 20 -262 -2 -13 -23
-66 -13 -70 13 -6 44 48 65 71 27 5 -8 26 -13 52 -13 43 0 45 1 45 30 0 17 5
30 10 30 6 0 10 -13 10 -30z m-1760 -103 l0 -123 48 -47 c42 -41 53 -47 76
-41 38 9 59 -12 52 -52 -6 -29 -1 -36 59 -92 36 -34 65 -64 65 -67 0 -15 -23
1 -85 60 -39 36 -78 68 -87 71 -9 3 -20 14 -23 24 -3 10 -33 44 -65 74 l-60
55 0 130 c0 81 4 131 10 131 6 0 10 -48 10 -123z m150 45 l0 -78 100 -99 c87
-86 112 -115 96 -115 -2 0 -54 48 -115 108 l-111 107 0 71 c0 39 3 74 7 77 17
18 23 1 23 -71z m336 -227 c-4 -14 -11 -25 -16 -25 -12 0 -14 313 -2 324 9 10
26 -266 18 -299z m324 299 c0 -3 -38 -47 -85 -97 l-85 -92 0 -257 c0 -165 -4
-258 -10 -258 -6 0 -10 94 -10 261 l0 260 88 95 c79 85 102 105 102 88z
m-1137 -74 c21 -38 58 -96 82 -127 59 -79 249 -263 320 -310 31 -21 76 -50 99
-66 145 -96 341 -176 543 -219 144 -31 449 -33 583 -5 116 25 302 88 391 133
272 137 521 363 655 596 40 68 54 82 54 51 0 -22 -84 -165 -142 -242 -88 -118
-278 -287 -413 -366 -15 -9 -15 -12 7 -30 12 -11 17 -13 11 -5 -19 21 -16 35
4 19 15 -12 16 -12 10 3 -3 10 1 22 11 29 14 11 15 11 5 0 -16 -18 -5 -41 15
-34 9 3 4 -4 -13 -16 -16 -12 -36 -19 -42 -16 -7 2 -13 -1 -13 -8 0 -13 -55
-41 -77 -40 -7 0 -11 -3 -8 -7 7 -12 -182 -95 -294 -129 -164 -49 -297 -64
-501 -58 -190 6 -289 22 -453 77 -85 29 -317 135 -361 166 -19 13 -19 13 0 12
10 -1 30 2 43 6 20 7 23 6 17 -9 -5 -15 -4 -16 9 -5 11 9 15 9 15 1 0 -7 4
-10 9 -7 5 4 12 0 14 -6 4 -9 6 -9 6 -1 1 6 -20 24 -46 39 -158 91 -302 213
-438 369 -49 57 -167 254 -159 267 11 17 21 6 57 -62z m2791 51 c15 -16 15
-19 2 -24 -11 -4 -13 -1 -9 11 6 15 4 15 -9 4 -14 -11 -16 -10 -11 7 6 25 6
25 27 2z m-1496 -75 c-2 -11 -12 -25 -23 -31 -11 -6 -54 -46 -95 -88 l-75 -79
-5 -221 -6 -222 -2 230 -2 230 79 79 c60 60 77 83 73 99 -7 27 25 52 45 35 8
-6 13 -21 11 -32z m1222 41 c0 -12 -79 -77 -84 -69 -3 6 13 24 36 41 41 30 48
34 48 28z m-2310 -27 c0 -11 -4 -20 -10 -20 -5 0 -10 9 -10 20 0 11 5 20 10
20 6 0 10 -9 10 -20z m490 -26 c0 -9 -5 -14 -12 -12 -18 6 -21 28 -4 28 9 0
16 -7 16 -16z m1139 -2 c19 -35 -27 -70 -55 -42 -5 5 -74 10 -154 11 -80 2
-136 5 -125 7 11 2 24 8 30 13 5 5 60 9 121 9 65 0 115 4 119 10 10 17 54 11
64 -8z m251 -38 c0 -19 -4 -34 -10 -34 -5 0 -10 18 -10 41 0 24 4 38 10 34 6
-3 10 -22 10 -41z m-1880 -9 c0 -14 -4 -25 -10 -25 -5 0 -10 11 -10 25 0 14 5
25 10 25 6 0 10 -11 10 -25z m550 -30 c13 -14 20 -28 17 -32 -4 -3 -8 -4 -9
-2 -2 2 -14 16 -27 32 -31 34 -13 36 19 2z m1644 -11 c20 -19 20 -24 0 -52
-19 -27 -50 -28 -66 -2 -11 18 -24 20 -103 20 -79 0 -92 -2 -103 -20 -7 -11
-21 -20 -32 -20 -10 0 -24 9 -30 20 -9 17 -21 20 -83 20 l-72 0 -77 -77 -78
-78 -1 -160 c-1 -96 -4 -150 -9 -135 -4 14 -8 88 -9 165 l-1 140 82 82 83 83
82 0 c48 0 92 5 103 12 15 10 22 10 32 0 19 -19 202 -16 218 3 16 19 44 19 64
-1z m-2194 -24 c0 -11 -4 -20 -10 -20 -5 0 -10 9 -10 20 0 11 5 20 10 20 6 0
10 -9 10 -20z m1184 -6 c24 -23 20 -53 -9 -64 -25 -9 -25 -10 -25 -144 0 -132
0 -134 25 -150 52 -34 21 -121 -41 -114 -55 6 -73 97 -23 113 20 7 21 12 18
181 -3 147 -1 176 11 184 21 13 26 12 44 -6z m346 -8 c0 -3 -4 -8 -10 -11 -5
-3 -10 -1 -10 4 0 6 5 11 10 11 6 0 10 -2 10 -4z m-40 -46 c-6 -11 -13 -20
-16 -20 -2 0 0 9 6 20 6 11 13 20 16 20 2 0 0 -9 -6 -20z m-72 -22 c18 -18 15
-43 -8 -63 -17 -15 -20 -31 -20 -102 0 -81 1 -85 30 -110 17 -14 30 -34 30
-48 0 -14 -13 -34 -30 -48 -16 -14 -30 -33 -30 -41 0 -9 -4 -16 -10 -16 -5 0
-10 8 -10 18 0 10 -11 29 -25 42 -14 13 -25 31 -25 41 0 10 11 31 25 47 22 27
25 39 25 114 0 71 -3 86 -20 101 -37 31 -19 77 30 77 14 0 31 -5 38 -12z
m-818 -68 c0 -16 -4 -30 -10 -30 -5 0 -10 14 -10 30 0 17 5 30 10 30 6 0 10
-13 10 -30z m407 -29 c-14 -24 -17 -57 -18 -188 -2 -193 -7 -181 -12 27 -2 85
-7 162 -11 171 -4 10 -1 23 10 33 15 16 18 16 33 2 14 -15 14 -19 -2 -45z
m1108 19 c-4 -6 -53 -10 -115 -10 -105 0 -109 -1 -113 -22 l-4 -23 -8 23 c-7
20 -14 22 -79 22 -103 0 -113 -13 -117 -145 -3 -107 -6 -125 -20 -125 -5 0 -9
49 -9 110 0 108 0 110 31 145 l31 35 205 0 c133 0 202 -3 198 -10z m-1511 -71
c8 -40 -4 -199 -15 -199 -5 0 -9 52 -9 115 0 111 11 149 24 84z m1286 -54 c0
-30 -4 -55 -9 -55 -4 0 -7 10 -6 23 1 12 3 37 4 55 2 54 11 36 11 -23z m165
-94 c3 -5 0 -13 -6 -17 -7 -4 -9 -3 -5 4 3 5 0 13 -6 15 -9 4 -10 6 -1 6 6 1
14 -3 18 -8z"/>
<path d="M2408 3916 c-60 -16 -113 -57 -138 -106 -23 -44 -50 -63 -77 -53 -14
5 -16 3 -6 -7 21 -22 61 -3 83 40 82 161 315 159 391 -5 10 -22 19 -34 19 -27
0 21 -36 85 -62 109 -51 47 -139 68 -210 49z"/>
<path d="M2639 3613 c-13 -16 -12 -17 4 -4 16 13 21 21 13 21 -2 0 -10 -8 -17
-17z"/>
<path d="M1905 3930 c-10 -17 12 -37 25 -24 8 8 6 15 -4 23 -10 9 -16 9 -21 1z"/>
<path d="M1737 3633 c-12 -11 -7 -33 7 -33 12 0 26 20 26 36 0 7 -26 5 -33 -3z"/>
<path d="M3122 3508 c-18 -18 -14 -27 10 -20 14 3 19 2 14 -6 -4 -7 -1 -12 7
-12 21 0 27 11 16 31 -11 22 -30 24 -47 7z"/>
<path d="M3680 2726 c0 -9 7 -16 16 -16 9 0 14 5 12 12 -6 18 -28 21 -28 4z"/>
<path d="M1650 3380 c0 -5 5 -10 11 -10 5 0 7 5 4 10 -3 6 -8 10 -11 10 -2 0
-4 -4 -4 -10z"/>
<path d="M2037 3323 c-13 -12 -7 -33 8 -33 8 0 15 9 15 20 0 20 -11 26 -23 13z"/>
<path d="M1666 2935 c4 -8 8 -15 10 -15 2 0 4 7 4 15 0 8 -4 15 -10 15 -5 0
-7 -7 -4 -15z"/>
<path d="M1085 3089 c-10 -15 3 -25 16 -12 7 7 7 13 1 17 -6 3 -14 1 -17 -5z"/>
<path d="M2440 3045 c0 -8 9 -15 20 -15 11 0 20 7 20 15 0 8 -9 15 -20 15 -11
0 -20 -7 -20 -15z"/>
<path d="M2052 2923 c-28 -43 -89 -117 -137 -165 -100 -101 -105 -119 -8 -25
72 68 135 146 177 220 43 72 25 56 -32 -30z"/>
<path d="M2217 2972 c-22 -24 -21 -45 1 -65 24 -22 45 -21 65 1 22 24 21 45
-1 65 -24 22 -45 21 -65 -1z m58 -32 c0 -8 -10 -16 -22 -18 -18 -3 -23 2 -23
18 0 16 5 21 23 18 12 -2 22 -10 22 -18z"/>
<path d="M2638 2979 c-37 -21 -12 -89 32 -89 17 0 50 34 50 52 0 13 -39 48
-52 48 -7 0 -21 -5 -30 -11z m50 -36 c-2 -10 -12 -18 -23 -18 -11 0 -21 8 -23
18 -3 13 3 17 23 17 20 0 26 -4 23 -17z"/>
<path d="M2833 2955 c29 -57 104 -151 148 -185 41 -31 40 -30 -14 26 -31 32
-76 86 -98 119 -48 71 -57 81 -36 40z"/>
<path d="M2115 2918 c-22 -29 -76 -91 -120 -137 -44 -46 -71 -79 -59 -73 32
17 176 174 202 220 13 23 22 42 20 42 -2 0 -22 -24 -43 -52z"/>
<path d="M2770 2952 c25 -51 74 -113 140 -176 39 -36 75 -66 80 -66 5 0 -18
26 -53 57 -34 31 -78 78 -97 103 -68 91 -81 106 -70 82z"/>
<path d="M2260 2841 c-102 -53 -242 -129 -311 -169 -69 -39 -128 -72 -131 -72
-3 0 -79 -43 -169 -96 -90 -53 -193 -112 -229 -130 -84 -45 -182 -104 -215
-129 -33 -25 -54 -84 -55 -155 l-2 -55 -23 70 c-13 39 -24 79 -25 90 -1 12 -5
7 -10 -13 -6 -25 -2 -49 17 -98 14 -35 29 -61 34 -58 5 3 9 0 9 -5 0 -6 -7
-11 -15 -11 -20 0 -55 58 -55 93 0 18 -5 27 -16 27 -14 0 -16 8 -11 43 4 28 3
36 -3 22 -12 -28 -12 -108 1 -142 5 -15 22 -40 37 -55 l26 -28 1344 0 1344 0
28 28 c35 36 58 125 42 168 l-10 29 -1 -32 c-1 -18 -5 -33 -9 -33 -5 0 -14
-23 -21 -50 -12 -45 -46 -88 -60 -74 -3 3 0 9 7 13 20 12 52 107 52 152 0 24
-4 38 -10 34 -5 -3 -10 -15 -10 -26 0 -29 -34 -139 -42 -139 -5 0 -8 24 -8 53
0 87 -15 123 -68 162 -45 33 -198 122 -234 137 -38 15 -15 -1 65 -47 112 -65
175 -112 191 -144 17 -34 31 -201 17 -201 -6 0 -11 1 -11 3 0 1 -5 45 -10 97
-8 93 -10 96 -46 127 -34 30 -182 121 -304 186 -30 17 -86 49 -125 72 -219
132 -745 415 -770 415 -14 0 -267 -128 -395 -200 -52 -29 -133 -74 -180 -99
-335 -184 -647 -371 -666 -400 -11 -16 -18 -55 -22 -113 -3 -48 -9 -88 -13
-88 -10 0 -12 122 -3 169 11 55 74 103 294 226 73 41 270 152 495 280 61 34
195 106 299 160 l190 98 140 -73 c113 -58 281 -150 436 -240 78 -45 377 -214
385 -217 32 -14 -42 34 -105 69 -41 22 -82 46 -90 53 -8 7 -60 37 -115 67 -55
30 -149 83 -210 118 -159 90 -432 230 -447 229 -7 -1 -96 -44 -198 -98z m267
-9 c72 -35 212 -110 321 -174 45 -26 86 -48 89 -48 4 0 36 -17 72 -39 36 -21
104 -61 151 -89 47 -27 126 -71 175 -97 50 -26 97 -53 105 -60 8 -6 53 -33 99
-60 88 -51 121 -79 121 -104 0 -11 -5 -10 -19 6 -19 20 -352 223 -366 223 -4
0 -77 41 -163 92 -87 50 -184 106 -217 123 -33 17 -136 74 -229 125 -112 62
-180 94 -200 94 -19 0 -82 -28 -166 -74 -74 -40 -191 -104 -260 -140 -124 -67
-187 -102 -307 -173 -34 -21 -64 -37 -68 -37 -18 0 -373 -216 -392 -238 -16
-19 -23 -22 -23 -11 0 8 15 29 33 46 30 28 231 151 321 196 21 10 87 47 145
82 167 98 695 384 713 385 3 0 32 -13 65 -28z m-237 -217 c10 -12 44 -15 185
-15 141 0 175 3 185 15 33 40 94 -1 64 -43 -19 -27 -36 -28 -59 -2 -17 19 -31
20 -190 20 -166 0 -173 -1 -187 -22 -18 -26 -63 -19 -73 13 -13 41 47 68 75
34z m-176 -101 c22 -21 20 -47 -4 -69 -18 -16 -20 -31 -20 -157 0 -90 -4 -137
-10 -133 -6 4 -10 63 -10 144 0 111 -3 141 -15 151 -20 17 -19 57 3 69 24 15
38 13 56 -5z m326 -69 c10 -13 51 -15 250 -15 199 0 240 2 250 15 17 21 37 19
52 -5 8 -12 24 -20 43 -21 l30 -1 -32 -9 c-18 -5 -35 -14 -38 -19 -8 -13 -52
-13 -60 0 -4 6 -95 10 -242 10 -230 0 -236 0 -259 -22 -22 -21 -24 -31 -24
-121 0 -63 -4 -96 -10 -92 -6 3 -10 50 -10 105 0 78 -3 99 -15 104 -18 7 -20
57 -3 74 17 17 53 15 68 -3z m-177 -47 c8 -12 7 -21 -2 -32 -18 -22 -38 -20
-51 5 -22 40 29 66 53 27z m-263 -3 c12 -15 5 -55 -11 -55 -5 0 -9 -41 -9 -92
0 -112 -8 -113 -11 -1 -1 66 -6 86 -20 99 -22 20 -24 35 -7 52 16 16 43 15 58
-3z m-160 -50 c12 -15 5 -55 -11 -55 -5 0 -10 -30 -11 -67 l-2 -68 -3 65 c-3
43 -9 68 -19 73 -14 8 -19 48 -7 60 11 12 40 8 53 -8z m1163 -62 c-51 -2 -135
-2 -185 0 -51 1 -10 3 92 3 102 0 143 -2 93 -3z m-1385 -45 c22 -22 14 -57
-14 -64 -38 -10 -61 17 -46 51 12 27 40 33 60 13z m632 -33 c0 -25 -4 -45 -10
-45 -5 0 -10 20 -10 45 0 25 5 45 10 45 6 0 10 -20 10 -45z m1110 0 c0 -25 -4
-45 -10 -45 -5 0 -10 20 -10 45 0 25 5 45 10 45 6 0 10 -20 10 -45z m-208 -14
c11 -12 10 -12 -2 -5 -8 5 -114 12 -235 15 l-220 5 222 0 c176 -1 225 -4 235
-15z m518 -143 c16 -18 30 -36 30 -40 0 -5 -558 -8 -1240 -8 -959 0 -1240 3
-1240 12 0 7 14 27 32 45 l32 33 1178 -5 1178 -5 30 -32z"/>
<path d="M2070 2480 c0 -5 4 -10 9 -10 6 0 13 5 16 10 3 6 -1 10 -9 10 -9 0
-16 -4 -16 -10z"/>
<path d="M2390 2415 c0 -8 7 -15 15 -15 8 0 15 7 15 15 0 8 -7 15 -15 15 -8 0
-15 -7 -15 -15z"/>
<path d="M2956 2423 c-11 -11 -6 -23 9 -23 8 0 15 4 15 9 0 13 -16 22 -24 14z"/>
<path d="M3038 2708 c12 -13 41 -34 65 -47 23 -12 33 -16 23 -9 -10 7 -40 28
-65 47 -34 25 -40 27 -23 9z"/>
<path d="M1794 2654 c-18 -14 -18 -15 4 -4 12 6 22 13 22 15 0 8 -5 6 -26 -11z"/>
<path d="M1740 2625 c-14 -8 -20 -14 -14 -15 5 0 19 7 30 15 24 18 16 19 -16
0z"/>
<path d="M3177 2619 c7 -7 15 -10 18 -7 3 3 -2 9 -12 12 -14 6 -15 5 -6 -5z"/>
<path d="M3250 2586 c0 -2 7 -7 16 -10 8 -3 12 -2 9 4 -6 10 -25 14 -25 6z"/>
<path d="M1625 2570 c-3 -6 1 -7 9 -4 18 7 21 14 7 14 -6 0 -13 -4 -16 -10z"/>
<path d="M1550 2530 c-9 -6 -10 -10 -3 -10 6 0 15 5 18 10 8 12 4 12 -15 0z"/>
<path d="M1443 2480 c-46 -22 -83 -42 -83 -46 0 -3 3 -3 8 -1 4 2 42 20 85 40
42 20 77 39 77 42 0 7 4 9 -87 -35z"/>
<path d="M3437 2489 c7 -7 15 -10 18 -7 3 3 -2 9 -12 12 -14 6 -15 5 -6 -5z"/>
<path d="M3490 2465 c0 -7 61 -37 66 -33 2 3 -12 12 -31 21 -19 9 -35 15 -35
12z"/>
<path d="M1430 2425 c-25 -13 -41 -24 -37 -25 11 0 87 39 87 45 0 7 0 7 -50
-20z"/>
<path d="M1320 2415 c-14 -8 -20 -14 -14 -15 5 0 19 7 30 15 24 18 16 19 -16
0z"/>
<path d="M3470 2427 c0 -2 56 -32 124 -66 162 -82 176 -96 176 -166 0 -30 5
-55 10 -55 6 0 10 22 10 49 0 70 -25 94 -177 174 -122 63 -143 72 -143 64z"/>
<path d="M1248 2335 c-96 -49 -114 -71 -125 -150 -4 -31 -2 -45 6 -45 6 0 11
17 11 43 0 65 27 98 119 146 44 23 81 44 81 47 0 6 4 8 -92 -41z"/>
<path d="M3820 3080 c0 -5 5 -10 10 -10 6 0 10 5 10 10 0 6 -4 10 -10 10 -5 0
-10 -4 -10 -10z"/>
<path d="M1215 3030 c3 -5 8 -10 11 -10 2 0 4 5 4 10 0 6 -5 10 -11 10 -5 0
-7 -4 -4 -10z"/>
<path d="M1200 2628 c0 -7 4 -19 9 -27 8 -12 12 -13 25 -2 12 11 14 17 5 27
-14 17 -39 18 -39 2z"/>
<path d="M3900 2430 c0 -11 4 -20 9 -20 11 0 22 26 14 34 -12 12 -23 5 -23
-14z"/>
<path d="M3195 1179 c-78 -43 -82 -53 -6 -14 27 13 52 21 56 17 5 -4 5 -1 1 6
-4 7 -1 12 8 12 9 0 16 5 16 10 0 12 8 15 -75 -31z"/>
<path d="M1767 1149 c7 -7 15 -10 18 -7 3 3 -2 9 -12 12 -14 6 -15 5 -6 -5z"/>
<path d="M3090 1130 c-8 -5 -10 -10 -5 -10 6 0 17 5 25 10 8 5 11 10 5 10 -5
0 -17 -5 -25 -10z"/>
<path d="M1860 1110 c8 -5 20 -10 25 -10 6 0 3 5 -5 10 -8 5 -19 10 -25 10 -5
0 -3 -5 5 -10z"/>
<path d="M3030 1105 c-14 -8 -20 -14 -15 -14 6 0 21 6 35 14 14 8 21 14 15 14
-5 0 -21 -6 -35 -14z"/>
<path d="M1970 1070 c8 -5 20 -10 25 -10 6 0 3 5 -5 10 -8 5 -19 10 -25 10 -5
0 -3 -5 5 -10z"/>
<path d="M2018 1053 c7 -3 16 -2 19 1 4 3 -2 6 -13 5 -11 0 -14 -3 -6 -6z"/>
<path d="M2058 1043 c7 -3 16 -2 19 1 4 3 -2 6 -13 5 -11 0 -14 -3 -6 -6z"/>
<path d="M2858 1043 c7 -3 16 -2 19 1 4 3 -2 6 -13 5 -11 0 -14 -3 -6 -6z"/>
<path d="M2098 1033 c7 -3 16 -2 19 1 4 3 -2 6 -13 5 -11 0 -14 -3 -6 -6z"/>
<path d="M2818 1033 c7 -3 16 -2 19 1 4 3 -2 6 -13 5 -11 0 -14 -3 -6 -6z"/>
<path d="M2138 1023 c6 -2 18 -2 25 0 6 3 1 5 -13 5 -14 0 -19 -2 -12 -5z"/>
<path d="M2778 1023 c7 -3 16 -2 19 1 4 3 -2 6 -13 5 -11 0 -14 -3 -6 -6z"/>
<path d="M2188 1013 c6 -2 18 -2 25 0 6 3 1 5 -13 5 -14 0 -19 -2 -12 -5z"/>
<path d="M2718 1013 c6 -2 18 -2 25 0 6 3 1 5 -13 5 -14 0 -19 -2 -12 -5z"/>
<path d="M2253 1003 c9 -2 23 -2 30 0 6 3 -1 5 -18 5 -16 0 -22 -2 -12 -5z"/>
<path d="M2653 1003 c9 -2 23 -2 30 0 6 3 -1 5 -18 5 -16 0 -22 -2 -12 -5z"/>
<path d="M2383 993 c42 -2 112 -2 155 0 42 1 7 3 -78 3 -85 0 -120 -2 -77 -3z"/>
<path d="M2452 1248 c-14 -14 -16 -32 -3 -23 5 3 12 1 16 -5 12 -20 37 -11 33
12 -3 26 -28 34 -46 16z"/>
<path d="M2697 1544 c-14 -14 -7 -35 11 -32 9 2 17 10 17 17 0 16 -18 25 -28
15z"/>
<path d="M2702 1243 c5 -26 38 -29 38 -4 0 15 -6 21 -21 21 -14 0 -19 -5 -17
-17z"/>
<path d="M3499 3983 c6 -12 16 -25 21 -28 17 -11 11 5 -11 28 l-21 22 11 -22z"/>
<path d="M3540 3954 c0 -5 20 -29 44 -53 33 -32 46 -39 51 -29 5 7 5 10 1 7
-4 -4 -27 14 -52 39 -24 26 -44 42 -44 36z"/>
<path d="M3660 3840 c8 -5 15 -15 15 -22 1 -7 6 -12 13 -10 7 1 12 -6 13 -15
0 -12 2 -14 6 -5 6 15 -34 62 -51 62 -6 0 -4 -5 4 -10z"/>
<path d="M3730 3760 c8 -5 15 -13 15 -18 0 -4 15 -23 32 -42 18 -19 33 -38 33
-41 0 -4 7 -10 16 -13 18 -7 13 2 -26 45 -8 9 -26 31 -39 48 -13 17 -28 31
-35 31 -6 0 -4 -5 4 -10z"/>
<path d="M3860 3591 c0 -5 7 -12 16 -15 14 -5 15 -4 4 9 -14 17 -20 19 -20 6z"/>
<path d="M3885 3551 c-3 -6 5 -15 17 -21 21 -10 21 -10 6 3 -10 8 -15 17 -11
20 3 4 4 7 0 7 -3 0 -8 -4 -12 -9z"/>
<path d="M4051 2354 c0 -11 3 -14 6 -6 3 7 2 16 -1 19 -3 4 -6 -2 -5 -13z"/>
<path d="M861 2344 c0 -11 3 -14 6 -6 3 7 2 16 -1 19 -3 4 -6 -2 -5 -13z"/>
<path d="M872 2300 c0 -14 2 -19 5 -12 2 6 2 18 0 25 -3 6 -5 1 -5 -13z"/>
<path d="M4042 2300 c0 -14 2 -19 5 -12 2 6 2 18 0 25 -3 6 -5 1 -5 -13z"/>
<path d="M4031 2254 c0 -11 3 -14 6 -6 3 7 2 16 -1 19 -3 4 -6 -2 -5 -13z"/>
</g>
</svg>
